<?xml version="1.0" encoding="UTF-8" standalone="no"?>
<svg
   version="1.1"
   viewBox="0 0 300 100"
   id="svg67"
   sodipodi:docname="logo.svg"
   inkscape:version="1.4 (86a8ad7, 2024-10-11)"
   width="300"
   height="100"
   xmlns:inkscape="http://www.inkscape.org/namespaces/inkscape"
   xmlns:sodipodi="http://sodipodi.sourceforge.net/DTD/sodipodi-0.dtd"
   xmlns="http://www.w3.org/2000/svg"
   xmlns:svg="http://www.w3.org/2000/svg"
   xmlns:rdf="http://www.w3.org/1999/02/22-rdf-syntax-ns#"
   xmlns:cc="http://creativecommons.org/ns#"
   xmlns:dc="http://purl.org/dc/elements/1.1/">
  <metadata
     id="metadata71">
    <rdf:RDF>
      <cc:Work
         rdf:about="">
        <dc:format>image/svg+xml</dc:format>
        <dc:type
           rdf:resource="http://purl.org/dc/dcmitype/StillImage" />
        <dc:title />
      </cc:Work>
    </rdf:RDF>
  </metadata>
  <sodipodi:namedview
     pagecolor="#ffffff"
     bordercolor="#666666"
     borderopacity="1"
     objecttolerance="10"
     gridtolerance="10"
     guidetolerance="10"
     inkscape:pageopacity="0"
     inkscape:pageshadow="2"
     inkscape:window-width="1920"
     inkscape:window-height="1017"
     id="namedview69"
     showgrid="false"
     inkscape:zoom="2.7374302"
     inkscape:cx="124.56939"
     inkscape:cy="125.48265"
     inkscape:window-x="-8"
     inkscape:window-y="-8"
     inkscape:window-maximized="1"
     inkscape:current-layer="svg67"
     inkscape:document-rotation="0"
     inkscape:showpageshadow="0"
     inkscape:pagecheckerboard="0"
     inkscape:deskcolor="#505050" />
  <defs
     id="defs4">
    <style
       id="style2">
      .cls-1, .cls-2, .cls-3, .cls-4 {
        fill: #fff;
      }

      .cls-2 {
        font-family: SpaceBT-Bold, 'Space Bd BT';
        font-size: 38.7px;
        font-weight: 700;
      }

      .cls-3 {
        letter-spacing: .3em;
      }

      .cls-3, .cls-4 {
        font-family: SegoeUISymbol, 'Segoe UI Symbol';
        font-size: 14.3px;
      }

      .cls-4 {
        letter-spacing: .3em;
      }
    </style>
  </defs>
  <!-- Generator: Adobe Illustrator 28.7.2, SVG Export Plug-In . SVG Version: 1.2.0 Build 154)  -->
  <path
     class="cls-1"
     d="M 62.091538,35.867749 C 55.061672,22.674714 40.616743,18.244936 29.1571,21.615419 15.771469,25.5637 8.3564059,37.023344 8.6453045,49.253384 8.9342027,62.639018 17.60116,72.654169 29.349699,75.928352 c 13.289334,3.659382 27.926863,-2.792686 33.704834,-16.370919 1.540793,0.866696 2.985285,1.733391 4.526078,2.696387 C 63.439731,72.943067 51.305991,82.861918 35.994366,82.380421 18.949354,81.802624 6.2378163,69.379985 3.7340286,54.549858 0.6524438,36.156648 12.304686,20.845023 27.520008,16.511544 c 15.793122,-4.526077 31.393645,2.888986 38.51981,15.600524 -1.348193,1.251894 -2.600087,2.503787 -3.94828,3.755681 z"
     id="path34-1"
     style="fill:#000000;stroke-width:0.962995" />
  <g
     aria-label="OPENBUILDS"
     id="text38-1"
     style="font-weight:700;font-size:38.7px;font-family:SpaceBT-Bold, 'Space Bd BT';fill:#000000"
     class="cls-2"
     transform="matrix(0.96299527,0,0,0.96299527,-379.08746,-369.09899)">
    <path
       d="m 466.69518,423.77844 q -1.5873,0 -2.39985,0.81254 -0.81255,0.81255 -0.81255,2.39986 v 10.223 q 0,1.5873 0.81255,2.39985 0.81255,0.81255 2.39985,0.81255 h 7.63418 q 1.58731,0 2.39986,-0.81255 0.81255,-0.81255 0.81255,-2.39985 v -10.223 q 0,-1.58731 -0.81255,-2.39986 -0.81255,-0.81254 -2.39986,-0.81254 z m -0.54799,-5.65005 h 8.71128 q 3.94936,0 6.17915,2.22978 2.22978,2.22979 2.22978,6.16026 v 11.11113 q 0,3.94936 -2.22978,6.19805 -2.22979,2.24868 -6.17915,2.24868 h -8.71128 q -3.93047,0 -6.16026,-2.24868 -2.22978,-2.24869 -2.22978,-6.19805 v -11.11113 q 0,-3.93047 2.22978,-6.16026 2.22979,-2.22978 6.16026,-2.22978 z"
       style="fill:#000000"
       id="path356" />
    <path
       d="m 492.3944,424.28864 v 5.57446 h 8.40894 q 1.37944,0 2.09751,-0.54799 0.71807,-0.548 0.71807,-1.58731 v -1.32275 q 0,-1.03931 -0.71807,-1.56841 -0.71807,-0.548 -2.09751,-0.548 z m -5.72563,-5.61226 h 14.90933 q 3.89267,0 5.82011,1.60621 1.94634,1.5873 1.94634,4.78081 v 4.02495 q 0,3.1935 -1.94634,4.8186 -1.94633,1.6062 -5.82011,1.6062 h -9.1837 v 10.01514 h -5.72563 z"
       style="fill:#000000"
       id="path358" />
    <path
       d="m 520.24782,418.67638 h 13.28423 v 5.61226 h -12.84961 q -1.75737,0 -2.43765,0.68027 -0.66137,0.66138 -0.66137,2.45655 v 1.70068 h 15.94863 v 5.65005 h -15.94863 v 2.00303 q 0,1.77627 0.66137,2.43764 0.66138,0.66138 2.43765,0.66138 h 12.84961 v 5.65005 h -13.28423 q -4.53515,0 -6.4626,-1.92744 -1.92744,-1.94634 -1.92744,-6.50039 v -10.03404 q 0,-4.55405 1.90855,-6.46259 1.92744,-1.92745 6.48149,-1.92745 z"
       style="fill:#000000"
       id="path360" />
    <path
       d="m 551.25696,424.32643 4.02495,14.22906 q 0.32124,1.13379 0.66137,1.51172 0.35904,0.35903 1.00152,0.35903 0.69917,0 1.0582,-0.43462 0.37793,-0.43462 0.37793,-1.26606 v -20.04918 h 5.72563 v 20.69166 q 0,3.15571 -1.85185,4.93198 -1.85186,1.77627 -5.15874,1.77627 -3.00454,0 -4.68633,-1.39834 -1.66289,-1.39834 -2.62661,-4.79971 l -4.02495,-14.24795 q -0.32124,-1.11489 -0.68028,-1.47392 -0.34013,-0.37793 -0.98261,-0.37793 -0.71807,0 -1.0771,0.41572 -0.35904,0.41572 -0.35904,1.24717 v 20.08696 h -5.72563 v -20.74834 q 0,-3.13682 1.85186,-4.89419 1.85185,-1.75737 5.15874,-1.75737 3.00454,0 4.66743,1.39834 1.68178,1.39834 2.64551,4.7997 z"
       style="fill:#000000"
       id="path362" />
    <path
       d="m 573.38474,424.11857 v 15.94864 h 8.97583 q 1.83296,0 2.58882,-0.66138 0.75586,-0.66138 0.75586,-2.22979 0,-1.5684 -0.75586,-2.19199 -0.73696,-0.64248 -2.58882,-0.64248 h -6.25474 v -5.02646 h 6.06578 q 1.79516,0 2.49433,-0.5669 0.71807,-0.58579 0.71807,-2.02192 0,-1.43614 -0.71807,-2.02193 -0.69917,-0.58579 -2.49433,-0.58579 z m -5.72564,-5.44219 h 15.24947 q 4.00605,0 6.06577,1.45503 2.05972,1.45503 2.05972,4.27061 v 2.92895 q 0,1.90855 -1.43614,3.08013 -1.41723,1.15269 -3.81709,1.19048 2.66441,0.13228 4.10054,1.43613 1.43613,1.28496 1.43613,3.55254 v 3.17461 q 0,2.81558 -2.07861,4.2895 -2.07861,1.47393 -6.06577,1.47393 H 567.6591 Z"
       style="fill:#000000"
       id="path364" />
    <path
       d="m 594.71887,418.67638 h 5.72563 v 18.53746 q 0,1.5873 0.81255,2.39985 0.83145,0.81255 2.43765,0.81255 h 6.4248 q 1.6062,0 2.41875,-0.81255 0.83145,-0.81255 0.83145,-2.39985 v -18.53746 h 5.72563 v 18.95318 q 0,3.94936 -2.24868,6.19805 -2.22979,2.24868 -6.17915,2.24868 h -7.50191 q -3.94936,0 -6.19804,-2.24868 -2.24868,-2.24869 -2.24868,-6.19805 z"
       style="fill:#000000"
       id="path366" />
    <path
       d="m 622.66677,418.67638 h 5.72564 v 26.85191 h -5.72564 z"
       style="fill:#000000"
       id="path368" />
    <path
       d="m 632.00164,418.67638 h 5.72564 v 18.10284 q 0,1.75737 0.68027,2.43764 0.68027,0.66138 2.45654,0.66138 h 8.71128 v 5.65005 h -9.127 q -4.55405,0 -6.50039,-1.92744 -1.94634,-1.94634 -1.94634,-6.50039 z"
       style="fill:#000000"
       id="path370" />
    <path
       d="m 657.4174,424.28864 v 15.5896 h 9.41045 q 1.6062,0 2.41875,-0.81255 0.83145,-0.81255 0.83145,-2.39985 v -9.127 q 0,-1.6062 -0.83145,-2.41875 -0.83144,-0.83145 -2.41875,-0.83145 z m -5.72563,-5.61226 h 15.68408 q 3.94936,0 6.17915,2.22979 2.24868,2.21089 2.24868,6.16025 v 10.03404 q 0,3.93047 -2.24868,6.17915 -2.22979,2.24868 -6.17915,2.24868 h -15.68408 z"
       style="fill:#000000"
       id="path372" />
    <path
       d="m 687.21717,418.67638 h 13.92671 v 5.61226 h -14.04009 q -1.41724,0 -2.1542,0.62358 -0.71807,0.60469 -0.71807,1.81407 0,1.19048 0.71807,1.79516 0.73696,0.60469 2.1542,0.60469 h 6.02798 q 4.34619,0 6.78383,2.1731 2.43765,2.17309 2.43765,6.02798 0,3.85488 -2.43765,6.02797 -2.43764,2.1731 -6.78383,2.1731 h -14.07789 v -5.65005 h 14.21016 q 1.644,0 2.47544,-0.64248 0.85034,-0.64248 0.85034,-1.90854 0,-1.28497 -0.85034,-1.90855 -0.83144,-0.64248 -2.47544,-0.64248 h -6.04687 q -4.04385,0 -6.38702,-2.1542 -2.32426,-2.1731 -2.32426,-5.8957 0,-3.74151 2.32426,-5.89571 2.34317,-2.1542 6.38702,-2.1542 z"
       style="fill:#000000"
       id="path374" />
  </g>
  <g
     aria-label="DOCUMENTATION"
     transform="matrix(1.0099979,0,0,0.91818,-379.08746,-369.09899)"
     id="text42-0"
     style="font-size:14.3px;font-family:SegoeUISymbol, 'Segoe UI Symbol';letter-spacing:0.3em;fill:#000000;stroke-width:1.04881"
     class="cls-3">
    <path
       d="m 497.71586,483.95007 v -10.01279 h 2.76504 q 5.29268,0 5.29268,4.88071 0,2.31817 -1.47329,3.72862 -1.46631,1.40346 -3.93111,1.40346 z m 1.17305,-8.95146 v 7.89014 h 1.49424 q 1.96904,0 3.06528,-1.05435 1.09624,-1.05435 1.09624,-2.98848 0,-3.84731 -4.0917,-3.84731 z"
       style="fill:#000000;stroke-width:1.04881"
       id="path377" />
    <path
       d="m 516.06846,484.11765 q -2.12964,0 -3.4144,-1.40347 -1.27779,-1.40346 -1.27779,-3.6518 0,-2.41592 1.30572,-3.8543 1.30571,-1.43838 3.55405,-1.43838 2.07378,0 3.3376,1.39649 1.2708,1.39648 1.2708,3.6518 0,2.45083 -1.29873,3.87525 -1.29873,1.42441 -3.47725,1.42441 z m 0.0838,-9.28662 q -1.57803,0 -2.56255,1.13813 -0.98452,1.13814 -0.98452,2.98848 0,1.85034 0.95659,2.9815 0.96358,1.12417 2.50669,1.12417 1.64785,0 2.59746,-1.0753 0.94961,-1.07529 0.94961,-3.00942 0,-1.98301 -0.92168,-3.06528 -0.92168,-1.08228 -2.5416,-1.08228 z"
       style="fill:#000000;stroke-width:1.04881"
       id="path379" />
    <path
       d="m 533.91833,483.53113 q -1.11021,0.58652 -2.76504,0.58652 -2.13662,0 -3.42139,-1.37554 -1.28477,-1.37553 -1.28477,-3.60991 0,-2.40195 1.44537,-3.88222 1.44536,-1.48028 3.66577,-1.48028 1.42441,0 2.36006,0.41196 v 1.24986 q -1.0753,-0.60049 -2.37403,-0.60049 -1.72466,0 -2.79995,1.1521 -1.06831,1.1521 -1.06831,3.07925 0,1.82939 0.99849,2.91865 1.00547,1.08228 2.63237,1.08228 1.5082,0 2.61143,-0.67032 z"
       style="fill:#000000;stroke-width:1.04881"
       id="path381" />
    <path
       d="m 547.57175,479.90027 q 0,4.21738 -3.80542,4.21738 -3.64482,0 -3.64482,-4.05679 v -6.12358 h 1.17305 v 6.04678 q 0,3.07925 2.59746,3.07925 2.50669,0 2.50669,-2.97452 v -6.15151 h 1.17304 z"
       style="fill:#000000;stroke-width:1.04881"
       id="path383" />
    <path
       d="m 564.56976,483.95007 h -1.16606 v -6.71709 q 0,-0.79599 0.0978,-1.94809 h -0.0279 q -0.16758,0.67729 -0.30024,0.97055 l -3.42139,7.69463 h -0.57256 l -3.4144,-7.63877 q -0.14663,-0.33515 -0.30024,-1.02641 h -0.0279 q 0.0558,0.60049 0.0558,1.96206 v 6.70312 h -1.13115 v -10.01279 h 1.5501 l 3.07227,6.98242 q 0.3561,0.80298 0.46084,1.20098 h 0.0419 q 0.30024,-0.82393 0.48179,-1.22891 l 3.1351,-6.95449 h 1.46631 z"
       style="fill:#000000;stroke-width:1.04881"
       id="path385" />
    <path
       d="m 576.79878,483.95007 h -5.30664 v -10.01279 h 5.0832 v 1.06133 h -3.91015 v 3.33061 h 3.61689 v 1.05435 h -3.61689 v 3.50518 h 4.13359 z"
       style="fill:#000000;stroke-width:1.04881"
       id="path387" />
    <path
       d="m 591.08761,483.95007 h -1.43838 l -5.15303,-7.98091 q -0.19551,-0.30024 -0.32119,-0.62841 h -0.0419 q 0.0559,0.32119 0.0559,1.37553 v 7.23379 h -1.17304 v -10.01279 h 1.52217 l 5.01337,7.85522 q 0.31421,0.48877 0.40498,0.67032 h 0.0279 q -0.0698,-0.43291 -0.0698,-1.47329 v -7.05225 h 1.17305 z"
       style="fill:#000000;stroke-width:1.04881"
       id="path389" />
    <path
       d="m 603.92409,474.99861 h -2.89072 v 8.95146 h -1.17305 v -8.95146 h -2.88374 v -1.06133 h 6.94751 z"
       style="fill:#000000;stroke-width:1.04881"
       id="path391" />
    <path
       d="m 617.53563,483.95007 h -1.29873 l -1.06133,-2.80693 h -4.24531 l -0.99849,2.80693 h -1.30571 l 3.84033,-10.01279 h 1.21494 z m -2.7441,-3.86128 -1.57104,-4.26626 q -0.0768,-0.20947 -0.15361,-0.67031 h -0.0279 q -0.0698,0.42593 -0.1606,0.67031 l -1.55708,4.26626 z"
       style="fill:#000000;stroke-width:1.04881"
       id="path393" />
    <path
       d="m 629.22001,474.99861 h -2.89072 v 8.95146 h -1.17305 v -8.95146 h -2.88374 v -1.06133 h 6.94751 z"
       style="fill:#000000;stroke-width:1.04881"
       id="path395" />
    <path
       d="m 636.2541,483.95007 h -1.17305 v -10.01279 h 1.17305 z"
       style="fill:#000000;stroke-width:1.04881"
       id="path397" />
    <path
       d="m 647.21232,484.11765 q -2.12964,0 -3.4144,-1.40347 -1.27779,-1.40346 -1.27779,-3.6518 0,-2.41592 1.30572,-3.8543 1.30571,-1.43838 3.55405,-1.43838 2.07378,0 3.3376,1.39649 1.2708,1.39648 1.2708,3.6518 0,2.45083 -1.29873,3.87525 -1.29873,1.42441 -3.47725,1.42441 z m 0.0838,-9.28662 q -1.57803,0 -2.56255,1.13813 -0.98452,1.13814 -0.98452,2.98848 0,1.85034 0.95659,2.9815 0.96357,1.12417 2.50669,1.12417 1.64785,0 2.59746,-1.0753 0.94961,-1.07529 0.94961,-3.00942 0,-1.98301 -0.92168,-3.06528 -0.92168,-1.08228 -2.5416,-1.08228 z"
       style="fill:#000000;stroke-width:1.04881"
       id="path399" />
    <path
       d="m 666.31902,483.95007 h -1.43838 l -5.15302,-7.98091 q -0.19551,-0.30024 -0.3212,-0.62841 h -0.0419 q 0.0559,0.32119 0.0559,1.37553 v 7.23379 h -1.17305 v -10.01279 h 1.52217 l 5.01338,7.85522 q 0.31421,0.48877 0.40498,0.67032 h 0.0279 q -0.0698,-0.43291 -0.0698,-1.47329 v -7.05225 h 1.17305 z"
       style="fill:#000000;stroke-width:1.04881"
       id="path401" />
  </g>
  <path
     id="polygon44-6"
     style="fill:#000000;stroke-width:0.962995"
     d="m 24.342123,33.075063 -3.851977,3.851981 2.985285,4.04458 -0.770396,1.251894 -1.155594,3.081585 -0.0963,0.674097 -5.007575,0.770396 v 5.392773 l 5.007575,0.674097 0.577798,2.311189 1.444492,2.792686 -2.985285,4.04458 3.851977,3.755682 3.948281,-2.888986 1.829691,0.866696 4.237179,-9.148455 -0.674097,-0.385199 -0.866695,-0.674096 -0.770397,-0.962996 -0.577797,-1.059294 -0.288898,-1.155595 v -1.155594 l 0.0963,-1.155594 0.481498,-1.155595 0.577797,-0.962995 0.866696,-0.866696 0.962995,-0.577797 1.155594,-0.481497 1.155595,-0.192599 1.155594,0.0963 1.155594,0.288899 1.059295,0.577797 0.866696,0.674096 0.770396,0.962996 0.577797,1.059295 0.288899,1.155594 v 1.155594 l -0.192599,1.155594 -0.385198,1.155595 -0.674097,0.962995 -0.770396,0.866696 -1.059295,0.577797 -0.0963,0.0963 4.23718,9.244754 0.481497,-0.192599 1.251894,-0.866696 4.04458,2.985286 3.851981,-3.755682 -3.081585,-4.04458 0.866696,-1.251894 1.155595,-3.081585 0.0963,-0.770396 4.911276,-0.674097 V 46.749596 L 52.076387,45.9792 51.49859,43.764311 l -1.444493,-2.888986 2.985285,-3.948281 -3.851981,-3.851981 -3.94828,2.985285 -2.792687,-1.444493 -2.311188,-0.577797 -0.674097,-5.007575 h -5.392773 l -0.674097,5.007575 -0.770396,0.0963 -2.985286,1.155594 -1.348193,0.866696 z"
     class="cls-1" />
  <g
     aria-label="PART STORE"
     transform="scale(1.0488088,0.95346263)"
     id="text56-6"
     style="font-size:14.3px;font-family:SegoeUISymbol, 'Segoe UI Symbol';letter-spacing:0.3em;fill:#000000;stroke-width:1.04881"
     class="cls-4" />
</svg>
